<?xml version="1.0" encoding="utf-8"?>
<!-- Generator: Adobe Illustrator 24.1.1, SVG Export Plug-In . SVG Version: 6.00 Build 0)  -->
<svg version="1.1" id="logo-gen1" xmlns:svgjs="http://svgjs.dev/svgjs"
	 xmlns="http://www.w3.org/2000/svg" xmlns:xlink="http://www.w3.org/1999/xlink" x="0px" y="0px" viewBox="0 0 503 100"
	 style="enable-background:new 0 0 503 100;" xml:space="preserve">
<style type="text/css">
	.st0{fill:#FF6400;}
	.st1{fill:#FFFFFF;}
</style>
<polygon class="st0" points="0,0 50,0 0,50 "/>
<rect y="50" class="st0" width="50" height="50"/>
<path class="st1" d="M132,70.4h33.5v-9.1h-22.4V18H132V70.4z"/>
<path class="st1" d="M188.2,71.1c11.9,0,19.3-8.2,19.3-20.3c0-12.2-7.4-20.3-19.3-20.3c-11.9,0-19.3,8.1-19.3,20.3
	C168.9,63,176.3,71.1,188.2,71.1z M188.3,62.7c-5.5,0-8.3-5-8.3-11.9c0-6.9,2.8-11.9,8.3-11.9c5.4,0,8.2,5.1,8.2,11.9
	C196.5,57.6,193.7,62.7,188.3,62.7z"/>
<path class="st1" d="M230.2,85.9c11.2,0,19.2-5.1,19.2-15.2V31.1h-10.8v6.6h-0.4c-1.5-3.2-4.7-7.1-11.2-7.1
	c-8.6,0-15.9,6.7-15.9,20.1c0,13.1,7.1,19.2,15.9,19.2c6.3,0,9.8-3.1,11.2-6.4h0.5v7.2c0,5.4-3.5,7.5-8.2,7.5
	c-4.8,0-7.2-2.1-8.1-4.5L212.2,75C213.5,81.1,219.6,85.9,230.2,85.9z M230.4,61.6c-5.3,0-8.3-4.2-8.3-11c0-6.7,2.9-11.4,8.3-11.4
	c5.3,0,8.3,4.5,8.3,11.4C238.7,57.5,235.6,61.6,230.4,61.6z"/>
<path class="st1" d="M273.6,71.1c11.9,0,19.3-8.2,19.3-20.3c0-12.2-7.4-20.3-19.3-20.3s-19.3,8.1-19.3,20.3
	C254.3,63,261.7,71.1,273.6,71.1z M273.7,62.7c-5.5,0-8.3-5-8.3-11.9c0-6.9,2.8-11.9,8.3-11.9c5.4,0,8.2,5.1,8.2,11.9
	C281.9,57.6,279.1,62.7,273.7,62.7z"/>
<path class="st1" d="M297.9,70.4h10.9V31.1h-10.9V70.4z M303.4,26c3.2,0,5.9-2.5,5.9-5.5c0-3-2.7-5.5-5.9-5.5
	c-3.2,0-5.9,2.5-5.9,5.5C297.5,23.5,300.1,26,303.4,26z"/>
<path class="st1" d="M315.3,85.1h10.9v-21h0.3c1.5,3.3,4.8,6.9,11.1,6.9c8.9,0,15.9-7.1,15.9-20.2c0-13.5-7.3-20.2-15.9-20.2
	c-6.6,0-9.7,3.9-11.2,7.1h-0.5v-6.6h-10.7V85.1z M326,50.7c0-7,3-11.5,8.3-11.5c5.4,0,8.3,4.7,8.3,11.5c0,6.9-2.9,11.6-8.3,11.6
	C329,62.3,326,57.7,326,50.7z"/>
<path class="st1" d="M391.4,42.3c-1-7.2-6.8-11.7-16.7-11.7c-10,0-16.7,4.7-16.6,12.2c0,5.9,3.7,9.7,11.4,11.2l6.8,1.4
	c3.4,0.7,5,1.9,5,3.9c-0.1,2.3-2.6,4-6.4,4c-3.9,0-6.5-1.7-7.1-4.9L357,59c1,7.5,7.4,12.1,17.8,12.1c10.2,0,17.5-5.2,17.5-12.9
	c0-5.7-3.7-9.1-11.4-10.6l-7.1-1.4c-3.7-0.8-5-2-5-3.9c0-2.4,2.6-3.9,6-3.9c3.8,0,6,2.1,6.6,4.6L391.4,42.3z"/>
<path class="st1" d="M422.2,53.6c0,5.3-3.6,8-7.5,8c-4.1,0-6.8-2.9-6.8-7.5V31.1H397v25c0,9.2,5.4,14.8,13.3,14.8
	c5.9,0,10.1-3,11.9-7.6h0.4v7.1h10.5V31.1h-10.9V53.6z"/>
<path class="st1" d="M439.6,70.4h10.9V46.8c0-4.3,2.8-7.2,6.4-7.2c3.6,0,6,2.5,6,6.3v24.5h10.6v-24c0-4.1,2.3-6.8,6.3-6.8
	c3.5,0,6.1,2.2,6.1,6.5v24.3h10.9V43.9c0-8.5-5.1-13.4-12.4-13.4c-5.8,0-10.2,2.9-11.8,7.4h-0.4c-1.3-4.6-5.3-7.4-10.7-7.4
	c-5.3,0-9.3,2.8-10.9,7.4H450v-6.9h-10.4V70.4z"/>
<polygon class="st0" points="50,0 100,0 50,50 "/>
<circle class="st0" cx="75" cy="75" r="25"/>
<path class="st1" d="M132,70.4h33.5v-9.1h-22.4V18H132V70.4z"/>
<path class="st1" d="M188.2,71.1c11.9,0,19.3-8.2,19.3-20.3c0-12.2-7.4-20.3-19.3-20.3c-11.9,0-19.3,8.1-19.3,20.3
	C168.9,63,176.3,71.1,188.2,71.1z M188.3,62.7c-5.5,0-8.3-5-8.3-11.9c0-6.9,2.8-11.9,8.3-11.9c5.4,0,8.2,5.1,8.2,11.9
	C196.5,57.6,193.7,62.7,188.3,62.7z"/>
<path class="st1" d="M230.2,85.9c11.2,0,19.2-5.1,19.2-15.2V31.1h-10.8v6.6h-0.4c-1.5-3.2-4.7-7.1-11.2-7.1
	c-8.6,0-15.9,6.7-15.9,20.1c0,13.1,7.1,19.2,15.9,19.2c6.3,0,9.8-3.1,11.2-6.4h0.5v7.2c0,5.4-3.5,7.5-8.2,7.5
	c-4.8,0-7.2-2.1-8.1-4.5L212.2,75C213.5,81.1,219.6,85.9,230.2,85.9z M230.4,61.6c-5.3,0-8.3-4.2-8.3-11c0-6.7,2.9-11.4,8.3-11.4
	c5.3,0,8.3,4.5,8.3,11.4C238.7,57.5,235.6,61.6,230.4,61.6z"/>
<path class="st1" d="M273.6,71.1c11.9,0,19.3-8.2,19.3-20.3c0-12.2-7.4-20.3-19.3-20.3s-19.3,8.1-19.3,20.3
	C254.3,63,261.7,71.1,273.6,71.1z M273.7,62.7c-5.5,0-8.3-5-8.3-11.9c0-6.9,2.8-11.9,8.3-11.9c5.4,0,8.2,5.1,8.2,11.9
	C281.9,57.6,279.1,62.7,273.7,62.7z"/>
<path class="st1" d="M297.9,70.4h10.9V31.1h-10.9V70.4z M303.4,26c3.2,0,5.9-2.5,5.9-5.5c0-3-2.7-5.5-5.9-5.5
	c-3.2,0-5.9,2.5-5.9,5.5C297.5,23.5,300.1,26,303.4,26z"/>
<path class="st1" d="M315.3,85.1h10.9v-21h0.3c1.5,3.3,4.8,6.9,11.1,6.9c8.9,0,15.9-7.1,15.9-20.2c0-13.5-7.3-20.2-15.9-20.2
	c-6.6,0-9.7,3.9-11.2,7.1h-0.5v-6.6h-10.7V85.1z M326,50.7c0-7,3-11.5,8.3-11.5c5.4,0,8.3,4.7,8.3,11.5c0,6.9-2.9,11.6-8.3,11.6
	C329,62.3,326,57.7,326,50.7z"/>
<path class="st1" d="M391.4,42.3c-1-7.2-6.8-11.7-16.7-11.7c-10,0-16.7,4.7-16.6,12.2c0,5.9,3.7,9.7,11.4,11.2l6.8,1.4
	c3.4,0.7,5,1.9,5,3.9c-0.1,2.3-2.6,4-6.4,4c-3.9,0-6.5-1.7-7.1-4.9L357,59c1,7.5,7.4,12.1,17.8,12.1c10.2,0,17.5-5.2,17.5-12.9
	c0-5.7-3.7-9.1-11.4-10.6l-7.1-1.4c-3.7-0.8-5-2-5-3.9c0-2.4,2.6-3.9,6-3.9c3.8,0,6,2.1,6.6,4.6L391.4,42.3z"/>
<path class="st1" d="M422.2,53.6c0,5.3-3.6,8-7.5,8c-4.1,0-6.8-2.9-6.8-7.5V31.1H397v25c0,9.2,5.4,14.8,13.3,14.8
	c5.9,0,10.1-3,11.9-7.6h0.4v7.1h10.5V31.1h-10.9V53.6z"/>
<path class="st1" d="M439.6,70.4h10.9V46.8c0-4.3,2.8-7.2,6.4-7.2c3.6,0,6,2.5,6,6.3v24.5h10.6v-24c0-4.1,2.3-6.8,6.3-6.8
	c3.5,0,6.1,2.2,6.1,6.5v24.3h10.9V43.9c0-8.5-5.1-13.4-12.4-13.4c-5.8,0-10.2,2.9-11.8,7.4h-0.4c-1.3-4.6-5.3-7.4-10.7-7.4
	c-5.3,0-9.3,2.8-10.9,7.4H450v-6.9h-10.4V70.4z"/>
</svg>
